Coordinates
version=1
nRows=14
nColumns=36
inDegrees=yes

Units are S.I. units (second, meters, Newtons, ...)
If the header above contains a line with 'inDegrees', this indicates whether rotational values are in degrees (yes) or radians (no).

endheader
time	pelvis_tilt	pelvis_list	pelvis_rotation	pelvis_tx	pelvis_ty	pelvis_tz	hip_flexion_r	hip_adduction_r	hip_rotation_r	knee_angle_r	knee_angle_r_beta	ankle_angle_r	subtalar_angle_r	mtp_angle_r	hip_flexion_l	hip_adduction_l	hip_rotation_l	knee_angle_l	knee_angle_l_beta	ankle_angle_l	subtalar_angle_l	mtp_angle_l	lumbar_extension	lumbar_bending	lumbar_rotation	arm_flex_r	arm_add_r	arm_rot_r	elbow_flex_r	pro_sup_r	arm_flex_l	arm_add_l	arm_rot_l	elbow_flex_l	pro_sup_l
      0.00000000	     -1.49954141	     -2.98138590	      1.13075444	     -0.97329114	      1.35059318	     -0.07499463	     -2.59876917	      3.83523865	      3.65179751	      2.72053560	      0.04748230	     -3.48957368	    -19.17954607	     -5.76616685	     -4.42589909	     -4.73582707	      2.60353785	      0.37001746	      0.00645802	      9.17973397	     -2.86465256	     -5.76616685	     -3.68763500	      2.31883101	     -0.16664632	     -9.06066483	    -10.92191802	      3.67644815	     72.06723325	     88.46306208	     -6.07974759	    -10.38010371	     17.76039361	     88.36960717	     92.75769915
      0.01694910	     -3.24537720	     -3.02333885	      1.02997889	     -0.97205972	      1.34847909	     -0.07468247	     -0.29354367	      4.02624103	      4.06206016	      3.78902970	      0.06613104	     -0.04130654	    -16.58732629	     -6.18001385	     -2.32687071	     -4.26333020	      4.78588969	      0.43971285	      0.00767444	      8.59096405	     -3.60383301	     -6.18001385	     -1.35758363	      2.73128178	     -0.32528917	     -9.32348942	    -11.09196079	      1.54239499	     76.47570036	     85.52656087	     -7.77880944	     -9.73358439	     15.67625018	     87.54715696	     88.98358806
      0.03389830	     -3.90544780	     -2.67024198	      1.08054098	     -0.97168428	      1.34380049	     -0.07450415	      0.29565775	      3.61986217	      3.51931776	      3.54047608	      0.06179296	      1.17269961	    -16.15374089	     -6.31530360	     -1.57506906	     -3.89652275	      4.96261438	      0.43212517	      0.00754201	      8.75331735	     -3.91368901	     -6.31530360	     -0.60435191	      2.19205015	      0.24511586	     -8.09941470	    -11.96133064	      2.13408775	     80.49003326	     84.41588157	     -7.95815639	     -9.24682291	     14.73510030	     83.89221332	     87.15387686
      0.05084750	     -3.82440281	     -2.41269824	      1.54857020	     -0.97235424	      1.34784184	     -0.07401245	      0.18720940	      3.36586203	      3.08551123	      3.47518301	      0.06065339	      1.60095831	    -16.08841124	     -6.45353487	     -1.74126877	     -3.57801597	      6.07884105	      0.37925199	      0.00661920	      8.32091054	     -4.71056926	     -6.45353487	     -0.68287660	      1.62831614	      0.55811879	     -7.79954375	    -13.73520370	      2.46581122	     85.80842987	     84.11618829	     -7.97561886	     -9.31755156	     14.14584047	     80.50516180	     86.21002565
      0.06779660	     -3.74414801	     -2.30894253	      1.79896253	     -0.97190683	      1.34488124	     -0.07464445	      0.02883743	      3.30373389	      3.03997493	      3.37337418	      0.05887649	      1.79018910	    -16.47914312	     -6.86067764	     -1.83966742	     -3.44935653	      6.59358695	      0.35561392	      0.00620663	      8.26411962	     -5.08831120	     -6.86067764	     -0.72847262	      1.33607176	      1.71824294	     -8.23220047	    -15.09478645	     -0.81842405	     94.31431608	     89.07306001	     -7.23639449	     -9.23232649	     14.28852426	     77.84998791	     89.52209845
      0.08474580	     -3.63579605	     -2.14920368	      2.23665938	     -0.97236966	      1.35224029	     -0.07438919	     -0.36452740	      3.18443146	      2.51234571	      2.85199309	      0.04977667	      1.84175508	    -16.14091640	     -6.94937462	     -1.87823281	     -3.31252960	      7.15413954	      0.33790884	      0.00589762	      8.00877011	     -5.31298974	     -6.94937462	     -0.66381999	      0.88343726	      1.29265641	     -5.78305134	    -17.18159631	     -1.23312235	     99.72534677	     87.41613362	     -7.42363927	     -9.16558479	     13.15896572	     74.62469011	     87.62829874
      0.10169490	     -3.41818718	     -2.07537109	      2.46434893	     -0.96618897	      1.35170783	     -0.07063216	     -1.06387244	      3.22846070	      2.45411093	      2.22876120	      0.03889922	      1.71863414	    -16.01385241	     -6.96362601	     -2.21277750	     -3.35886291	      7.47006337	      0.32064226	      0.00559626	      7.84404935	     -5.57383383	     -6.96362601	     -0.60570256	      0.55540038	      1.10635427	     -4.12258627	    -18.94053386	     -1.69787948	    105.79372012	     87.63177748	     -7.60722058	     -8.90362190	     11.95571019	     70.61872810	     87.46694737
      0.11864410	     -3.17097693	     -2.05108609	      2.57135404	     -0.96696850	      1.35100310	     -0.07007258	     -1.65315940	      3.32868027	      2.13629584	      1.80398299	      0.03148544	      1.77945424	    -15.59713890	     -7.02555491	     -2.54523640	     -3.44499431	      7.62880623	      0.31381150	      0.00547704	      7.85589570	     -5.60353670	     -7.02555491	     -0.60219057	      0.28958213	      0.59492035	     -1.51834141	    -20.92689908	     -1.77591847	    110.36103731	     86.51111654	     -7.07199863	     -8.65555024	     11.42652024	     65.29541797	     85.87158483
      0.13559320	     -3.06950641	     -2.03876680	      2.48307320	     -0.96646218	      1.35152448	     -0.07088841	     -1.97645783	      3.38516248	      2.13900505	      1.51031307	      0.02635994	      1.70978410	    -15.60440486	     -7.14470987	     -2.76040810	     -3.47568083	      7.89420375	      0.30787470	      0.00537343	      7.66870156	     -6.01087360	     -7.14470987	     -0.55607802	      0.13302862	      1.50465686	     -1.46380955	    -22.72352250	     -5.16379585	    116.07363863	     87.08486003	     -5.45823591	     -8.69436133	     12.63913632	     59.76943965	     83.98393450
      0.15254240	     -2.92029914	     -2.01750448	      2.19088610	     -0.96707301	      1.35120481	     -0.07013040	     -2.14808827	      3.38714306	      2.28010544	      1.53237817	      0.02674504	      1.44917451	    -15.96726521	     -7.24011372	     -3.05807826	     -3.48011742	      7.95061939	      0.30419110	      0.00530914	      7.58090882	     -6.29050434	     -7.24011372	     -0.69538215	      0.00506419	      1.37610450	      0.06057476	    -24.77881682	     -7.84924896	    120.09851355	     87.22898925	     -4.84485311	     -8.84999369	     12.10209930	     56.51275599	     82.29755042
      0.16949150	     -2.82680876	     -1.99969763	      1.83184696	     -0.96665230	      1.35168576	     -0.07020155	     -2.27914852	      3.35972312	      2.37309098	      1.41639198	      0.02472070	      1.44343033	    -15.80718159	     -7.27082866	     -3.27358047	     -3.46220601	      7.92750453	      0.29233483	      0.00510221	      7.62720101	     -6.42012999	     -7.27082866	     -0.74593826	     -0.21046670	      0.72649173	      3.34322113	    -26.83803377	     -8.90668637	    122.18121928	     85.87455706	     -4.77539600	     -9.16411484	     11.27139689	     53.23561658	     80.76103206
      0.18644070	     -2.95665833	     -2.01381006	      1.52033416	     -0.96750415	      1.35083301	     -0.06945239	     -2.12131272	      3.35744650	      2.57351229	      1.34225406	      0.02342675	      1.24008636	    -15.78741744	     -7.34165818	     -3.21462564	     -3.46837001	      8.08326737	      0.28164451	      0.00491562	      7.45208030	     -6.91612215	     -7.34165818	     -0.33643439	     -0.51499201	      0.81256947	      8.82914337	    -28.70355542	     -9.25151861	    123.01424368	     87.69993989	     -4.46655495	     -9.97755440	     12.12174704	     48.40285240	     78.25862332
      0.20338980	     -2.92677767	     -2.10794690	      1.17927740	     -0.96717596	      1.34718381	     -0.06932297	     -2.11311806	      3.43669497	      2.80797112	      1.32469509	      0.02312029	      1.12872743	    -15.85456932	     -7.36489789	     -3.32372187	     -3.55185951	      8.09756169	      0.27364534	      0.00477601	      7.53132181	     -7.22362057	     -7.36489789	     -0.14678055	     -0.47971555	      0.61104052	     15.10778503	    -30.73348219	     -8.32755281	    123.28658112	     86.48522837	     -4.19818859	    -10.60520140	     12.44738658	     44.62646250	     76.94114451
      0.22033900	     -2.92706014	     -2.17622098	      0.94886925	     -0.96756403	      1.34732224	     -0.06869864	     -2.08237770	      3.50595854	      3.03993228	      1.30738873	      0.02281824	      1.06028960	    -15.94148334	     -7.38597258	     -3.35661597	     -3.62066748	      8.26701263	      0.27981257	      0.00488365	      7.45171871	     -7.62782139	     -7.38597258	      0.10106442	     -0.64870318	      0.17859189	     21.55526558	    -32.07011138	     -7.08394840	    124.23640371	     85.89538547	     -4.06190347	    -11.26456832	     13.32918398	     41.26342079	     75.70532289
